<svg width="284" height="98" viewBox="0 0 284 98" fill="none" xmlns="http://www.w3.org/2000/svg">
<path d="M37.863 88.7592L1.70484 18.3211C0.926002 16.8039 2.02769 15 3.73313 15C4.59207 15 5.37812 15.4827 5.76657 16.2488L40.8392 85.4162C40.9787 85.6914 41.2611 85.8649 41.5697 85.8649C41.889 85.8649 42.1791 85.6794 42.3131 85.3896L74.2453 16.3437C74.6241 15.5244 75.4445 15 76.3471 15C78.0455 15 79.1661 16.7677 78.4414 18.3037L45.2622 88.6354C44.5812 90.079 43.1283 91 41.5321 91C39.9857 91 38.5693 90.1349 37.863 88.7592Z" fill="url(#paint0_linear_18_2)"/>
<path d="M89.2727 62V15.4545H114.091V16.9091H90.7273V38H112.727V39.4545H90.7273V60.5455H114.727V62H89.2727ZM161.102 30H159.557C159.269 28.4545 158.708 26.8788 157.875 25.2727C157.042 23.6667 155.936 22.1818 154.557 20.8182C153.178 19.4545 151.549 18.3561 149.67 17.5227C147.792 16.6894 145.663 16.2727 143.284 16.2727C140.102 16.2727 137.155 17.1439 134.443 18.8864C131.746 20.6136 129.572 23.1515 127.92 26.5C126.284 29.8333 125.466 33.9091 125.466 38.7273C125.466 43.6061 126.284 47.7121 127.92 51.0455C129.572 54.3788 131.746 56.9015 134.443 58.6136C137.155 60.3258 140.102 61.1818 143.284 61.1818C145.663 61.1818 147.792 60.7727 149.67 59.9545C151.549 59.1212 153.178 58.0303 154.557 56.6818C155.936 55.3182 157.042 53.8333 157.875 52.2273C158.708 50.6061 159.269 49.0152 159.557 47.4545H161.102C160.814 49.0909 160.239 50.7955 159.375 52.5682C158.511 54.3258 157.345 55.9697 155.875 57.5C154.405 59.0303 152.625 60.2727 150.534 61.2273C148.443 62.1667 146.027 62.6364 143.284 62.6364C139.466 62.6364 136.11 61.6364 133.216 59.6364C130.322 57.6364 128.064 54.8409 126.443 51.25C124.822 47.6591 124.011 43.4848 124.011 38.7273C124.011 33.9697 124.822 29.7955 126.443 26.2045C128.064 22.6136 130.322 19.8182 133.216 17.8182C136.11 15.8182 139.466 14.8182 143.284 14.8182C146.027 14.8182 148.443 15.2879 150.534 16.2273C152.625 17.1667 154.405 18.4015 155.875 19.9318C157.345 21.447 158.511 23.0909 159.375 24.8636C160.239 26.6212 160.814 28.3333 161.102 30ZM169.534 16.9091V15.4545H200.989V16.9091H185.989V62H184.534V16.9091H169.534ZM212.148 62V15.4545H225.784C228.39 15.4545 230.693 16.0076 232.693 17.1136C234.708 18.2197 236.284 19.7651 237.42 21.75C238.572 23.7348 239.148 26.0606 239.148 28.7273C239.148 31.3636 238.572 33.6742 237.42 35.6591C236.284 37.6288 234.708 39.1667 232.693 40.2727C230.693 41.3636 228.39 41.9091 225.784 41.9091H212.875V40.4545H225.784C228.117 40.4545 230.178 39.9697 231.966 39C233.754 38.0303 235.155 36.6667 236.17 34.9091C237.186 33.1515 237.693 31.0909 237.693 28.7273C237.693 26.3485 237.186 24.2727 236.17 22.5C235.155 20.7273 233.754 19.3561 231.966 18.3864C230.178 17.4015 228.117 16.9091 225.784 16.9091H213.602V62H212.148ZM229.875 40.8182L241.33 62H239.693L228.239 40.8182H229.875ZM247.886 62H246.341L262.977 15.4545H264.977L281.614 62H280.068L264.068 17.2727H263.886L247.886 62ZM253.159 44.8182H274.795V46.2727H253.159V44.8182Z" fill="url(#paint1_linear_18_2)"/>
<g filter="url(#filter0_f_18_2)">
<path d="M39.3333 55.9998C39.3333 57.4725 40.5272 58.6664 42 58.6664C43.4728 58.6664 44.6667 57.4725 44.6667 55.9998C44.6667 54.527 43.4728 53.3331 42 53.3331C40.5272 53.3331 39.3333 54.527 39.3333 55.9998ZM140.333 71.9998C140.333 73.4725 141.527 74.6664 143 74.6664C144.473 74.6664 145.667 73.4725 145.667 71.9998C145.667 70.527 144.473 69.3331 143 69.3331C141.527 69.3331 140.333 70.527 140.333 71.9998ZM42 56.4998H72.5V55.4998H42V56.4998ZM77 60.9998V66.9998H78V60.9998H77ZM82.5 72.4998H143V71.4998H82.5V72.4998ZM77 66.9998C77 70.0373 79.4624 72.4998 82.5 72.4998V71.4998C80.0147 71.4998 78 69.4851 78 66.9998H77ZM72.5 56.4998C74.9853 56.4998 77 58.5145 77 60.9998H78C78 57.9622 75.5376 55.4998 72.5 55.4998V56.4998Z" fill="url(#paint2_linear_18_2)"/>
</g>
<g filter="url(#filter1_f_18_2)">
<path d="M58.3333 90.9998C58.3333 92.4725 59.5272 93.6664 61 93.6664C62.4728 93.6664 63.6667 92.4725 63.6667 90.9998C63.6667 89.527 62.4728 88.3331 61 88.3331C59.5272 88.3331 58.3333 89.527 58.3333 90.9998ZM198.333 80.9998C198.333 82.4725 199.527 83.6664 201 83.6664C202.473 83.6664 203.667 82.4725 203.667 80.9998C203.667 79.527 202.473 78.3331 201 78.3331C199.527 78.3331 198.333 79.527 198.333 80.9998ZM61 91.4998H99.9665V90.4998H61V91.4998ZM109.967 81.4998H201V80.4998H109.967V81.4998ZM105.467 85.9998C105.467 83.5145 107.481 81.4998 109.967 81.4998V80.4998C106.929 80.4998 104.467 82.9622 104.467 85.9998H105.467ZM99.9665 91.4998C103.004 91.4998 105.467 89.0373 105.467 85.9998H104.467C104.467 88.4851 102.452 90.4998 99.9665 90.4998V91.4998Z" fill="url(#paint3_linear_18_2)"/>
</g>
<g filter="url(#filter2_f_18_2)">
<path d="M140.333 40.4998C140.333 41.9725 141.527 43.1664 143 43.1664C144.473 43.1664 145.667 41.9725 145.667 40.4998C145.667 39.027 144.473 37.8331 143 37.8331C141.527 37.8331 140.333 39.027 140.333 40.4998ZM239.833 90.9998C239.833 92.4725 241.027 93.6664 242.5 93.6664C243.973 93.6664 245.167 92.4725 245.167 90.9998C245.167 89.527 243.973 88.3331 242.5 88.3331C241.027 88.3331 239.833 89.527 239.833 90.9998ZM143 40.9998H168.5V39.9998H143V40.9998ZM173 45.4998V85.9998H174V45.4998H173ZM178.5 91.4998H242.5V90.4998H178.5V91.4998ZM173 85.9998C173 89.0373 175.462 91.4998 178.5 91.4998V90.4998C176.015 90.4998 174 88.485 174 85.9998H173ZM168.5 40.9998C170.985 40.9998 173 43.0145 173 45.4998H174C174 42.4622 171.538 39.9998 168.5 39.9998V40.9998Z" fill="url(#paint4_linear_18_2)"/>
</g>
<defs>
<filter id="filter0_f_18_2" x="37.3333" y="51.3331" width="110.333" height="25.3333" filterUnits="userSpaceOnUse" color-interpolation-filters="sRGB">
<feFlood flood-opacity="0" result="BackgroundImageFix"/>
<feBlend mode="normal" in="SourceGraphic" in2="BackgroundImageFix" result="shape"/>
<feGaussianBlur stdDeviation="1" result="effect1_foregroundBlur_18_2"/>
</filter>
<filter id="filter1_f_18_2" x="54.3333" y="74.3331" width="153.333" height="23.3333" filterUnits="userSpaceOnUse" color-interpolation-filters="sRGB">
<feFlood flood-opacity="0" result="BackgroundImageFix"/>
<feBlend mode="normal" in="SourceGraphic" in2="BackgroundImageFix" result="shape"/>
<feGaussianBlur stdDeviation="2" result="effect1_foregroundBlur_18_2"/>
</filter>
<filter id="filter2_f_18_2" x="139.333" y="36.8331" width="106.833" height="57.8333" filterUnits="userSpaceOnUse" color-interpolation-filters="sRGB">
<feFlood flood-opacity="0" result="BackgroundImageFix"/>
<feBlend mode="normal" in="SourceGraphic" in2="BackgroundImageFix" result="shape"/>
<feGaussianBlur stdDeviation="0.5" result="effect1_foregroundBlur_18_2"/>
</filter>
<linearGradient id="paint0_linear_18_2" x1="4.26667" y1="67.3784" x2="79.9254" y2="58.5244" gradientUnits="userSpaceOnUse">
<stop stop-color="#FF7B43"/>
<stop offset="0.527778" stop-color="#E34A9D"/>
<stop offset="1" stop-color="#95CCFF"/>
</linearGradient>
<linearGradient id="paint1_linear_18_2" x1="207" y1="8.88461" x2="148.335" y2="84.9935" gradientUnits="userSpaceOnUse">
<stop stop-color="#98CEFF"/>
<stop offset="0.394823" stop-color="#0091CF"/>
<stop offset="0.871528" stop-color="#FA67A5"/>
<stop offset="0.97303" stop-color="#FA7967"/>
</linearGradient>
<linearGradient id="paint2_linear_18_2" x1="143" y1="71.4664" x2="42.2171" y2="42.6247" gradientUnits="userSpaceOnUse">
<stop stop-color="#DFEFFF"/>
<stop offset="0.598846" stop-color="#37788D"/>
<stop offset="1" stop-color="#1F1F1F"/>
</linearGradient>
<linearGradient id="paint3_linear_18_2" x1="203.007" y1="78.9164" x2="53.9835" y2="101.125" gradientUnits="userSpaceOnUse">
<stop stop-color="#D7EBFE"/>
<stop offset="0.598846" stop-color="#0D98C4"/>
<stop offset="1" stop-color="#1B1B1B" stop-opacity="0.51"/>
</linearGradient>
<linearGradient id="paint4_linear_18_2" x1="244" y1="92.4998" x2="200.591" y2="7.18082" gradientUnits="userSpaceOnUse">
<stop stop-color="#DFEFFF"/>
<stop offset="0.598846" stop-color="#1BC3F9" stop-opacity="0.62"/>
<stop offset="1" stop-color="white" stop-opacity="0"/>
</linearGradient>
</defs>
</svg>
