<svg width="23" height="16" viewBox="0 0 23 16">
    <path d="M1.9762 7C1.42391 7 0.976196 7.44772 0.976196 8C0.976196 8.55228 1.42391 9 1.9762 9L1.9762 7ZM21.7309 8.70711C22.1214 8.31658 22.1214 7.68342 21.7309 7.29289L15.367 0.928932C14.9764 0.538408 14.3433 0.538408 13.9527 0.928932C13.5622 1.31946 13.5622 1.95262 13.9527 2.34315L19.6096 8L13.9527 13.6569C13.5622 14.0474 13.5622 14.6805 13.9527 15.0711C14.3433 15.4616 14.9764 15.4616 15.367 15.0711L21.7309 8.70711ZM1.9762 9L21.0238 9V7L1.9762 7L1.9762 9Z"></path>
</svg>